<svg fill="#fafafa" xmlns="http://www.w3.org/2000/svg"  viewBox="0 0 64 64" width="64px" height="64px"><path d="M 16 2 C 10.890625 2 6.917969 3.730469 6.148438 6.140625 C 4.910156 6.507813 4 7.644531 4 9 L 4 15.175781 C 4 19.125 4.742188 22.988281 6.203125 26.65625 L 11.566406 40.109375 C 11.980469 41.144531 12.914063 41.84375 14 41.972656 L 14 49 C 14 50.652344 15.347656 52 17 52 L 18 52 L 18 56.183594 C 16.839844 56.597656 16 57.699219 16 59 C 16 60.652344 17.347656 62 19 62 L 27 62 C 28.652344 62 30 60.652344 30 59 C 30 57.699219 29.160156 56.597656 28 56.183594 L 28 52 L 36 52 L 36 56.183594 C 34.839844 56.597656 34 57.699219 34 59 C 34 60.652344 35.347656 62 37 62 L 45 62 C 46.652344 62 48 60.652344 48 59 C 48 57.699219 47.160156 56.597656 46 56.183594 L 46 52 L 47 52 C 48.652344 52 50 50.652344 50 49 L 50 41.972656 C 51.085938 41.84375 52.019531 41.148438 52.433594 40.109375 L 57.796875 26.65625 C 59.257813 22.992188 60 19.125 60 15.175781 L 60 9 C 60 7.644531 59.089844 6.507813 57.855469 6.140625 C 57.082031 3.730469 53.109375 2 48 2 C 42.890625 2 38.917969 3.730469 38.144531 6.140625 C 36.910156 6.507813 36 7.644531 36 9 L 36 24 L 33 24 L 33 22 C 33.554688 22 34 21.550781 34 21 C 34 20.449219 33.554688 20 33 20 L 31 20 C 30.445313 20 30 20.449219 30 21 C 30 21.550781 30.445313 22 31 22 L 31 24 L 28 24 L 28 9 C 28 7.644531 27.089844 6.507813 25.855469 6.140625 C 25.082031 3.730469 21.109375 2 16 2 Z M 16 4 C 19.644531 4 22.304688 4.988281 23.417969 6 L 8.582031 6 C 9.695313 4.988281 12.355469 4 16 4 Z M 48 4 C 51.644531 4 54.304688 4.988281 55.417969 6 L 40.582031 6 C 41.695313 4.988281 44.355469 4 48 4 Z M 7 8 L 25 8 C 25.550781 8 26 8.449219 26 9 L 26 10 L 6 10 L 6 9 C 6 8.449219 6.449219 8 7 8 Z M 39 8 L 57 8 C 57.550781 8 58 8.449219 58 9 L 58 10 L 38 10 L 38 9 C 38 8.449219 38.449219 8 39 8 Z M 6 12 L 26 12 L 26 40 L 14.355469 40 C 13.945313 40 13.578125 39.753906 13.425781 39.371094 L 8.0625 25.917969 C 6.695313 22.488281 6 18.871094 6 15.175781 Z M 38 12 L 58 12 L 58 15.175781 C 58 18.871094 57.304688 22.488281 55.9375 25.917969 L 50.574219 39.371094 C 50.421875 39.753906 50.054688 40 49.644531 40 L 38 40 Z M 28 26 L 36 26 L 36 40 L 28 40 Z M 16 42 L 48 42 L 48 49 C 48 49.550781 47.550781 50 47 50 L 17 50 C 16.449219 50 16 49.550781 16 49 Z M 19 44 C 18.445313 44 18 44.449219 18 45 L 18 47 C 18 47.550781 18.445313 48 19 48 C 19.554688 48 20 47.550781 20 47 L 20 45 C 20 44.449219 19.554688 44 19 44 Z M 24 44 C 23.445313 44 23 44.449219 23 45 L 23 47 C 23 47.550781 23.445313 48 24 48 C 24.554688 48 25 47.550781 25 47 L 25 45 C 25 44.449219 24.554688 44 24 44 Z M 29 44 C 28.445313 44 28 44.449219 28 45 L 28 47 C 28 47.550781 28.445313 48 29 48 C 29.554688 48 30 47.550781 30 47 L 30 45 C 30 44.449219 29.554688 44 29 44 Z M 35 44 C 34.445313 44 34 44.449219 34 45 L 34 47 C 34 47.550781 34.445313 48 35 48 C 35.554688 48 36 47.550781 36 47 L 36 45 C 36 44.449219 35.554688 44 35 44 Z M 40 44 C 39.445313 44 39 44.449219 39 45 L 39 47 C 39 47.550781 39.445313 48 40 48 C 40.554688 48 41 47.550781 41 47 L 41 45 C 41 44.449219 40.554688 44 40 44 Z M 45 44 C 44.445313 44 44 44.449219 44 45 L 44 47 C 44 47.550781 44.445313 48 45 48 C 45.554688 48 46 47.550781 46 47 L 46 45 C 46 44.449219 45.554688 44 45 44 Z M 20 52 L 26 52 L 26 56 L 20 56 Z M 38 52 L 44 52 L 44 56 L 38 56 Z M 19 58 L 27 58 C 27.550781 58 28 58.449219 28 59 C 28 59.550781 27.550781 60 27 60 L 19 60 C 18.449219 60 18 59.550781 18 59 C 18 58.449219 18.449219 58 19 58 Z M 37 58 L 45 58 C 45.550781 58 46 58.449219 46 59 C 46 59.550781 45.550781 60 45 60 L 37 60 C 36.449219 60 36 59.550781 36 59 C 36 58.449219 36.449219 58 37 58 Z"/></svg>